<svg width="36" height="24" viewBox="0 0 36 24" fill="none" xmlns="http://www.w3.org/2000/svg">
<g id="icon-adidas-elo">
<rect width="36" height="24" fill="#F1EFEB"/>
<g id="Vector">
<path d="M9.07672 9.20844C9.37119 9.11049 9.68529 9.05825 10.0112 9.05825C11.4377 9.05825 12.6286 10.0691 12.9009 11.413L14.9229 11.0016C14.4596 8.71869 12.4363 7 10.0112 7C9.45495 7 8.92229 7.09011 8.42235 7.25728L9.07672 9.20844Z" fill="#FFCB05"/>
<path d="M6.69089 15.7462L8.05852 14.2039C7.44865 13.6645 7.06388 12.877 7.06388 11.9994C7.06388 11.123 7.44865 10.3355 8.05852 9.79745L6.69089 8.25376C5.65437 9.17057 5 10.5092 5 11.9994C5 13.4908 5.65437 14.8294 6.69089 15.7462Z" fill="#00A4E0"/>
<path d="M12.9009 12.5897C12.6273 13.9322 11.4377 14.9418 10.0125 14.9418C9.68529 14.9418 9.36988 14.8895 9.07672 14.7903L8.42235 16.744C8.92229 16.9099 9.45626 17 10.0125 17C12.4349 17 14.457 15.2839 14.9229 13.0037L12.9009 12.5897Z" fill="#EF4123"/>
<path fill-rule="evenodd" clip-rule="evenodd" d="M16.4803 13.8629C16.5352 13.9896 16.6242 14.1607 16.691 14.2678L22.2086 11.8674C22.193 11.8296 22.1774 11.7891 22.1614 11.7476C22.1426 11.6987 22.1232 11.6484 22.1026 11.5996C21.8003 10.897 21.4024 10.4007 20.841 10.0795C19.9563 9.55576 18.9368 9.47871 18.0141 9.87442C17.2799 10.1905 16.7119 10.8082 16.4148 11.6166C16.1452 12.3532 16.1596 13.1211 16.4803 13.8629ZM17.611 12.6797C17.5404 11.9614 17.878 11.3476 18.5337 11.0668C19.2875 10.7429 19.9079 10.9284 20.3856 11.4873L17.611 12.6797ZM20.7298 13.6618L20.7311 13.6605L21.8016 14.3749C21.498 14.849 21.053 15.2225 20.4863 15.468C19.7024 15.8076 18.9067 15.8232 18.1293 15.5006C17.933 15.4184 17.7458 15.3165 17.5705 15.195L18.2746 14.1437L18.2759 14.145L18.3138 14.0876C18.7274 14.4493 19.3019 14.5185 19.9223 14.2495C20.2481 14.1085 20.506 13.8904 20.6722 13.6226L20.7298 13.6618ZM24.1364 14.1711V8.32812H22.8368V14.1868C22.8368 14.5029 22.9193 14.7392 23.0305 14.9103C23.1457 15.0788 23.3001 15.2277 23.5252 15.3256L24.5303 15.7436L25.0473 14.5394L24.1364 14.1711ZM27.064 11.4364C26.7159 11.7394 26.4947 12.1861 26.4947 12.6836C26.4947 13.1799 26.7133 13.624 27.0601 13.9283L26.1269 14.9678C25.4948 14.4089 25.0957 13.5913 25.097 12.681C25.097 11.7721 25.4961 10.9558 26.1296 10.3968L27.064 11.4364ZM27.6281 14.2547C27.793 14.3096 27.971 14.3409 28.1542 14.3409C28.9564 14.3423 29.6252 13.7754 29.7809 13.0193L31.1525 13.2988C30.8659 14.6896 29.6318 15.7371 28.1529 15.7357C27.8126 15.7357 27.4867 15.6796 27.1818 15.5777L27.6281 14.2547ZM27.1883 9.78694C27.4933 9.68638 27.8191 9.63153 28.1581 9.63153C29.6383 9.63284 30.8724 10.6842 31.1538 12.0777L29.7823 12.3545C29.6304 11.5971 28.9604 11.0276 28.1568 11.0263C27.9736 11.0263 27.7969 11.0564 27.6307 11.1112L27.1883 9.78694Z" fill="black"/>
</g>
</g>
</svg>
