<svg width="52" height="24" viewBox="0 0 52 24" fill="none" xmlns="http://www.w3.org/2000/svg">
<g id="icon-adidas-pix">
<g id="Vector">
<path fill-rule="evenodd" clip-rule="evenodd" d="M24.9092 6.35952C23.1444 6.35964 21.7334 7.74089 21.7334 9.42102V19.6428C21.7334 19.8328 21.5794 19.9868 21.3894 19.9868C21.1994 19.9868 21.0454 19.8328 21.0454 19.6428V9.42102C21.0454 7.33958 22.7862 5.67156 24.9094 5.67156L28.0296 5.67611C30.1469 5.68017 31.8809 7.34479 31.8809 9.4205V11.5962C31.8809 13.6777 30.14 15.3457 28.0168 15.3457H23.6086C23.4186 15.3457 23.2646 15.1917 23.2646 15.0017C23.2646 14.8117 23.4186 14.6577 23.6086 14.6577H28.0168C29.7817 14.6577 31.193 13.2764 31.193 11.5962V9.4205C31.193 7.7455 29.788 6.36753 28.0286 6.36406C28.0285 6.36406 28.0286 6.36406 28.0286 6.36406L24.9092 6.35952C24.9093 6.35952 24.9091 6.35952 24.9092 6.35952Z" fill="#939598"/>
<path fill-rule="evenodd" clip-rule="evenodd" d="M32.0647 6.0142C32.0647 5.82423 32.2187 5.67023 32.4087 5.67023H33.7619C34.7389 5.67023 35.5504 6.43931 35.5504 7.41178V15.0475C35.5504 15.2374 35.3964 15.3914 35.2064 15.3914C35.0165 15.3914 34.8625 15.2374 34.8625 15.0475V7.41178C34.8625 6.8405 34.3806 6.35818 33.7619 6.35818H32.4087C32.2187 6.35818 32.0647 6.20418 32.0647 6.0142Z" fill="#939598"/>
<path d="M34.9163 4.83126L34.3027 4.2375C34.1503 4.0902 34.1503 3.85133 34.3027 3.70403L34.9159 3.11064C35.0685 2.96312 35.3157 2.96312 35.4681 3.11064L36.0814 3.70403C36.2338 3.85133 36.2338 4.0902 36.0814 4.2375L35.4678 4.83126C35.3155 4.97856 35.0687 4.97856 34.9163 4.83126Z" fill="#32BCAD"/>
<path fill-rule="evenodd" clip-rule="evenodd" d="M37.4587 6.00745C37.4587 5.81747 37.6127 5.66347 37.8026 5.66347H39.1447C39.9227 5.66347 40.6711 5.96239 41.2245 6.49778L44.3635 9.53457C44.6367 9.79892 45.0843 9.79897 45.3576 9.53457L48.4851 6.5089C49.0386 5.97354 49.7868 5.67459 50.5649 5.67459H51.656C51.846 5.67459 52 5.82859 52 6.01857C52 6.20854 51.846 6.36255 51.656 6.36255H50.5649C49.9621 6.36255 49.3863 6.59431 48.9635 7.00335C48.9635 7.00335 48.9635 7.00334 48.9635 7.00335L45.8359 10.029C45.296 10.5514 44.4251 10.5514 43.8851 10.029C43.8851 10.029 43.8851 10.029 43.8851 10.029L40.7461 6.99223C40.3233 6.58321 39.7475 6.35143 39.1447 6.35143H37.8026C37.6127 6.35143 37.4587 6.19742 37.4587 6.00745Z" fill="#939598"/>
<path fill-rule="evenodd" clip-rule="evenodd" d="M45.3576 11.4535C45.0843 11.1891 44.6367 11.1892 44.3635 11.4535L41.2245 14.4903C40.6711 15.0257 39.9227 15.3246 39.1447 15.3246H37.8026C37.6127 15.3246 37.4587 15.1706 37.4587 14.9807C37.4587 14.7907 37.6127 14.6367 37.8026 14.6367H39.1447C39.7475 14.6367 40.3233 14.4049 40.7461 13.9959L43.8851 10.9591C44.425 10.4367 45.2959 10.4367 45.8359 10.9591L48.9634 13.9847C49.3863 14.3938 49.9621 14.6256 50.5649 14.6256H51.656C51.846 14.6256 52 14.7796 52 14.9695C52 15.1595 51.846 15.3135 51.656 15.3135H50.5649C49.7868 15.3135 49.0386 15.0146 48.4851 14.4792L45.3576 11.4535Z" fill="#939598"/>
<path d="M13.3883 16.9207C12.7148 16.9207 12.0813 16.667 11.605 16.2064L9.03009 13.7153C8.84929 13.5399 8.53421 13.5404 8.35349 13.7153L5.76915 16.2155C5.29285 16.6761 4.65935 16.9298 3.98583 16.9298H3.47838L6.73963 20.0848C7.7581 21.0701 9.40944 21.0701 10.428 20.0848L13.6985 16.9207H13.3883Z" fill="#32BCAD"/>
<path d="M3.98582 8.10928C4.65934 8.10928 5.29284 8.36299 5.76914 8.82355L8.35348 11.3242C8.5396 11.5043 8.8435 11.505 9.03008 11.324L11.605 8.83267C12.0813 8.37211 12.7148 8.1184 13.3883 8.1184H13.6985L10.428 4.95438C9.40942 3.96901 7.75809 3.96901 6.73963 4.95438L3.47852 8.10929L3.98582 8.10928Z" fill="#32BCAD"/>
<path d="M16.4037 10.7354L14.4273 8.82339C14.3838 8.84025 14.3367 8.85077 14.2869 8.85077H13.3883C12.9237 8.85077 12.469 9.03307 12.1407 9.35088L9.56584 11.842C9.32488 12.0751 9.00826 12.1917 8.69193 12.1917C8.3753 12.1917 8.05891 12.0751 7.81802 11.8422L5.23344 9.34178C4.90516 9.02389 4.45039 8.84167 3.98582 8.84167H2.88089C2.83376 8.84167 2.78972 8.83092 2.74815 8.81578L0.763905 10.7354C-0.254635 11.7208 -0.254635 13.3183 0.763905 14.3036L2.74807 16.2232C2.78972 16.208 2.83376 16.1973 2.88089 16.1973H3.98582C4.45039 16.1973 4.90516 16.0151 5.23344 15.6973L7.81778 13.1971C8.2849 12.7456 9.09919 12.7454 9.56584 13.1973L12.1407 15.6882C12.469 16.006 12.9237 16.1883 13.3883 16.1883H14.2869C14.3367 16.1883 14.3838 16.1988 14.4273 16.2156L16.4037 14.3036C17.4221 13.3183 17.4221 11.7208 16.4037 10.7354Z" fill="#32BCAD"/>
<path d="M24.0721 18.774C23.9262 18.774 23.7565 18.8079 23.5885 18.8454V19.4683C23.7049 19.5094 23.8377 19.5291 23.965 19.5291C24.2879 19.5291 24.441 19.4238 24.441 19.1487C24.441 18.89 24.3156 18.774 24.0721 18.774ZM23.4796 19.9308V18.6989H23.5682L23.5775 18.7526C23.7269 18.7186 23.9335 18.674 24.0812 18.674C24.2013 18.674 24.3156 18.6917 24.4115 18.7667C24.5223 18.8543 24.5573 18.9952 24.5573 19.1487C24.5573 19.3096 24.5019 19.4612 24.3506 19.545C24.2455 19.6022 24.1034 19.6254 23.976 19.6254C23.845 19.6254 23.7196 19.6057 23.5885 19.5683V19.9308H23.4796Z" fill="#939598"/>
<path d="M25.368 18.7702C25.045 18.7702 24.9011 18.8685 24.9011 19.1434C24.9011 19.4094 25.0432 19.5291 25.368 19.5291C25.689 19.5291 25.8329 19.4326 25.8329 19.1577C25.8329 18.8917 25.6909 18.7702 25.368 18.7702ZM25.7831 19.5291C25.676 19.6039 25.5322 19.6254 25.368 19.6254C25.2001 19.6254 25.056 19.6022 24.9509 19.5291C24.8328 19.4488 24.7848 19.3165 24.7848 19.1507C24.7848 18.9863 24.8328 18.8525 24.9509 18.7702C25.056 18.6972 25.2001 18.6739 25.368 18.6739C25.534 18.6739 25.676 18.6972 25.7831 18.7702C25.9031 18.8525 25.9492 18.9863 25.9492 19.1486C25.9492 19.3148 25.9012 19.4488 25.7831 19.5291Z" fill="#939598"/>
<path d="M27.3116 19.6005L26.9518 18.8526H26.9443L26.5901 19.6005H26.4923L26.1085 18.6989H26.2285L26.5477 19.4558H26.5551L26.9019 18.6989H27.0016L27.3578 19.4558H27.3652L27.677 18.6989H27.7932L27.4095 19.6005H27.3116Z" fill="#939598"/>
<path d="M28.4893 18.7684C28.1904 18.7684 28.0889 18.8969 28.0704 19.0827H28.9082C28.899 18.8775 28.79 18.7684 28.4893 18.7684ZM28.4857 19.6253C28.3066 19.6253 28.1904 19.6004 28.0982 19.5253C27.9893 19.4343 27.9523 19.3023 27.9523 19.1506C27.9523 19.006 28.0022 18.8525 28.1259 18.7649C28.2291 18.6954 28.3565 18.6739 28.4893 18.6739C28.6093 18.6739 28.7477 18.6864 28.862 18.7614C28.9968 18.8488 29.0227 19.0025 29.0227 19.1773H28.0668C28.0704 19.3629 28.1332 19.5273 28.4948 19.5273C28.6665 19.5273 28.827 19.5004 28.9765 19.4754V19.57C28.8214 19.5969 28.6498 19.6253 28.4857 19.6253Z" fill="#939598"/>
<path d="M29.335 19.6004V18.6988H29.4236L29.4329 18.7525C29.6303 18.7043 29.7226 18.6739 29.896 18.6739H29.909V18.7739H29.8831C29.7374 18.7739 29.6488 18.7934 29.444 18.8453V19.6004H29.335Z" fill="#939598"/>
<path d="M30.5413 18.7684C30.2424 18.7684 30.1409 18.8969 30.1224 19.0827H30.9602C30.951 18.8775 30.842 18.7684 30.5413 18.7684ZM30.5377 19.6253C30.3586 19.6253 30.2424 19.6004 30.1502 19.5253C30.0412 19.4343 30.0043 19.3023 30.0043 19.1506C30.0043 19.006 30.0542 18.8525 30.1778 18.7649C30.2811 18.6954 30.4085 18.6739 30.5413 18.6739C30.6613 18.6739 30.7997 18.6864 30.914 18.7614C31.0487 18.8488 31.0747 19.0025 31.0747 19.1773H30.1188C30.1224 19.3629 30.1852 19.5273 30.5468 19.5273C30.7184 19.5273 30.8789 19.5004 31.0285 19.4754V19.57C30.8734 19.5969 30.7018 19.6253 30.5377 19.6253Z" fill="#939598"/>
<path d="M32.2673 18.831C32.1511 18.7899 32.0182 18.7702 31.8909 18.7702C31.568 18.7702 31.4147 18.8757 31.4147 19.1506C31.4147 19.4111 31.5402 19.5253 31.7837 19.5253C31.9296 19.5253 32.0994 19.4914 32.2673 19.4557V18.831ZM32.2877 19.6004L32.2784 19.5467C32.1289 19.5807 31.9222 19.6254 31.7746 19.6254C31.6548 19.6254 31.5402 19.6093 31.4443 19.5325C31.3336 19.445 31.2985 19.304 31.2985 19.1506C31.2985 18.9899 31.3539 18.838 31.5051 18.756C31.6103 18.6971 31.7524 18.6739 31.8816 18.6739C32.0108 18.6739 32.1363 18.6954 32.2673 18.731V18.3187H32.3762V19.6004H32.2877Z" fill="#939598"/>
<path d="M33.9726 18.7739C33.8267 18.7739 33.657 18.8079 33.4891 18.8454V19.4665C33.6072 19.5093 33.7382 19.5291 33.8655 19.5291C34.1884 19.5291 34.3415 19.4237 34.3415 19.1486C34.3415 18.89 34.2161 18.7739 33.9726 18.7739ZM34.2512 19.545C34.146 19.6022 34.0039 19.6254 33.8766 19.6254C33.7382 19.6254 33.5998 19.6022 33.4596 19.5575L33.454 19.6005H33.3801V18.3187H33.4891V18.7488C33.6385 18.7169 33.8396 18.674 33.9817 18.674C34.1018 18.674 34.2161 18.6916 34.312 18.7667C34.4228 18.8543 34.4578 18.9952 34.4578 19.1486C34.4578 19.3096 34.4024 19.4612 34.2512 19.545Z" fill="#939598"/>
<path d="M34.6023 19.9467V19.8486C34.6558 19.8539 34.7057 19.8576 34.7408 19.8576C34.8755 19.8576 34.9566 19.82 35.0323 19.6718L35.0674 19.6005L34.5803 18.6989H34.7057L35.1228 19.4772H35.1301L35.5268 18.6989H35.6505L35.1264 19.7112C35.0305 19.8951 34.9271 19.9557 34.7371 19.9557C34.6946 19.9557 34.6485 19.9521 34.6023 19.9467Z" fill="#939598"/>
<path d="M37.151 19.0863H36.7894V19.4024H37.1528C37.4019 19.4024 37.4961 19.3755 37.4961 19.2434C37.4961 19.1023 37.367 19.0863 37.151 19.0863ZM37.0847 18.5739H36.7894V18.8952H37.0865C37.3319 18.8952 37.4296 18.8668 37.4296 18.7328C37.4296 18.5901 37.3061 18.5739 37.0847 18.5739ZM37.6456 19.5148C37.5126 19.5969 37.3521 19.6004 37.0588 19.6004H36.5071V18.3776H37.0459C37.2987 18.3776 37.4536 18.3811 37.5828 18.4562C37.6751 18.5098 37.7119 18.5919 37.7119 18.6989C37.7119 18.8274 37.6567 18.9132 37.5126 18.9703V18.9774C37.6751 19.0132 37.7803 19.0935 37.7803 19.2667C37.7803 19.3844 37.736 19.4612 37.6456 19.5148Z" fill="#939598"/>
<path d="M38.8842 19.222C38.7752 19.213 38.6646 19.2077 38.5483 19.2077C38.3583 19.2077 38.2917 19.2452 38.2917 19.329C38.2917 19.4076 38.3472 19.4505 38.4929 19.4505C38.6147 19.4505 38.7605 19.4238 38.8842 19.3968V19.222ZM38.9395 19.6004L38.9321 19.5468C38.7733 19.5844 38.5889 19.6254 38.4265 19.6254C38.3267 19.6254 38.2198 19.6129 38.1441 19.5593C38.0741 19.5112 38.0408 19.4326 38.0408 19.3415C38.0408 19.2397 38.087 19.1451 38.1976 19.097C38.2954 19.0524 38.4265 19.0489 38.5465 19.0489C38.6442 19.0489 38.7752 19.0541 38.8842 19.0613V19.0452C38.8842 18.9042 38.7881 18.8578 38.5261 18.8578C38.4246 18.8578 38.301 18.863 38.1829 18.8738V18.6917C38.3139 18.6812 38.4616 18.6739 38.5834 18.6739C38.7456 18.6739 38.9137 18.6864 39.017 18.7578C39.1239 18.8311 39.1443 18.9328 39.1443 19.0666V19.6004L38.9395 19.6004Z" fill="#939598"/>
<path d="M40.3609 19.6004V19.1022C40.3609 18.9381 40.2743 18.8792 40.1192 18.8792C40.0049 18.8792 39.861 18.9077 39.7391 18.9363V19.6004H39.4789V18.6988H39.6911L39.7004 18.756C39.8645 18.715 40.0473 18.6739 40.1986 18.6739C40.3129 18.6739 40.4293 18.6899 40.5178 18.7667C40.5915 18.8311 40.6193 18.9202 40.6193 19.0488V19.6004H40.3609Z" fill="#939598"/>
<path d="M41.3544 19.6254C41.2344 19.6254 41.1033 19.6094 41.0074 19.5309C40.893 19.4415 40.8598 19.3006 40.8598 19.1487C40.8598 19.006 40.9078 18.8506 41.0498 18.7632C41.1661 18.69 41.31 18.674 41.4595 18.674C41.5665 18.674 41.6718 18.6812 41.7879 18.6917V18.8845C41.6937 18.8758 41.5812 18.8685 41.4909 18.8685C41.2435 18.8685 41.1274 18.9436 41.1274 19.1507C41.1274 19.3453 41.214 19.4291 41.417 19.4291C41.5351 19.4291 41.6736 19.4077 41.8083 19.3827V19.5682C41.6624 19.597 41.5038 19.6254 41.3544 19.6254Z" fill="#939598"/>
<path d="M42.5768 18.8631C42.3295 18.8631 42.2206 18.9381 42.2206 19.1434C42.2206 19.3488 42.3277 19.4363 42.5768 19.4363C42.8222 19.4363 42.9291 19.363 42.9291 19.1577C42.9291 18.9524 42.8241 18.8631 42.5768 18.8631ZM43.0233 19.5309C42.9089 19.6057 42.7595 19.6254 42.5768 19.6254C42.3904 19.6254 42.241 19.604 42.1284 19.5309C41.9992 19.4488 41.953 19.3131 41.953 19.1507C41.953 18.9881 41.9992 18.8506 42.1284 18.7685C42.241 18.6954 42.3904 18.674 42.5768 18.674C42.7614 18.674 42.9089 18.6954 43.0233 18.7685C43.1525 18.8506 43.1968 18.9881 43.1968 19.1487C43.1968 19.3113 43.1507 19.4488 43.0233 19.5309Z" fill="#939598"/>
<path d="M44.699 19.6254C44.5422 19.6254 44.3725 19.6005 44.245 19.4987C44.0938 19.3772 44.0477 19.1898 44.0477 18.988C44.0477 18.8078 44.1067 18.5936 44.3041 18.4687C44.4572 18.3723 44.6473 18.3526 44.8392 18.3526C44.9796 18.3526 45.1234 18.3616 45.2803 18.3741V18.5936C45.1456 18.5828 44.9796 18.5739 44.8504 18.5739C44.4905 18.5739 44.3374 18.7061 44.3374 18.988C44.3374 19.2756 44.4794 19.4041 44.7452 19.4041C44.9186 19.4041 45.1123 19.3702 45.3079 19.3308V19.5485C45.1123 19.5862 44.9074 19.6254 44.699 19.6254Z" fill="#939598"/>
<path d="M46.0726 18.8346C45.8566 18.8346 45.7735 18.9096 45.7569 19.0471H46.3844C46.3769 18.9007 46.2884 18.8346 46.0726 18.8346ZM46.0337 19.6254C45.8806 19.6254 45.7422 19.6076 45.6388 19.5253C45.5281 19.4362 45.4893 19.3023 45.4893 19.1486C45.4893 19.0112 45.5355 18.8578 45.6647 18.7684C45.7791 18.6899 45.9249 18.6739 46.0726 18.6739C46.2054 18.6739 46.3623 18.6882 46.4766 18.7649C46.6261 18.8667 46.639 19.0239 46.6408 19.2095H45.7551C45.7606 19.347 45.8363 19.4362 46.0983 19.4362C46.2607 19.4362 46.4415 19.413 46.5947 19.3898V19.5665C46.4157 19.5952 46.2201 19.6254 46.0337 19.6254Z" fill="#939598"/>
<path d="M47.7983 19.6004V19.1022C47.7983 18.9381 47.7117 18.8792 47.5566 18.8792C47.4422 18.8792 47.2984 18.9077 47.1765 18.9363V19.6004H46.9163V18.6988H47.1285L47.1378 18.756C47.3019 18.715 47.4847 18.6739 47.6361 18.6739C47.7504 18.6739 47.8667 18.6899 47.9552 18.7667C48.029 18.8311 48.0567 18.9202 48.0567 19.0488V19.6004H47.7983Z" fill="#939598"/>
<path d="M48.7973 19.6254C48.6719 19.6254 48.5575 19.5914 48.4948 19.4969C48.4486 19.4326 48.4264 19.3453 48.4264 19.2238V18.8863H48.2382V18.6989H48.4264L48.4542 18.4257H48.6848V18.6989H49.052V18.8863H48.6848V19.1756C48.6848 19.2452 48.6903 19.3041 48.7106 19.347C48.7383 19.4076 48.7991 19.4308 48.8803 19.4308C48.9412 19.4308 49.0151 19.4218 49.0667 19.4131V19.5932C48.9819 19.6094 48.884 19.6254 48.7973 19.6254Z" fill="#939598"/>
<path d="M49.3058 19.6004V18.6988H49.5181L49.5273 18.756C49.699 18.7096 49.8262 18.6739 49.9887 18.6739C49.996 18.6739 50.0071 18.6739 50.0218 18.6756V18.8899C49.9922 18.8882 49.9572 18.8882 49.9314 18.8882C49.804 18.8882 49.7081 18.9024 49.566 18.9346V19.6004H49.3058Z" fill="#939598"/>
<path d="M50.9677 19.222C50.8588 19.213 50.7481 19.2077 50.6319 19.2077C50.4418 19.2077 50.3752 19.2452 50.3752 19.329C50.3752 19.4076 50.4307 19.4505 50.5764 19.4505C50.6983 19.4505 50.844 19.4238 50.9677 19.3968V19.222ZM51.023 19.6004L51.0157 19.5468C50.8569 19.5844 50.6724 19.6254 50.51 19.6254C50.4104 19.6254 50.3034 19.6129 50.2276 19.5593C50.1577 19.5112 50.1243 19.4326 50.1243 19.3415C50.1243 19.2397 50.1705 19.1451 50.2812 19.097C50.379 19.0524 50.51 19.0489 50.63 19.0489C50.7278 19.0489 50.8588 19.0541 50.9677 19.0613V19.0452C50.9677 18.9042 50.8717 18.8578 50.6097 18.8578C50.5082 18.8578 50.3845 18.863 50.2664 18.8738V18.6917C50.3974 18.6812 50.5451 18.6739 50.667 18.6739C50.8293 18.6739 50.9973 18.6864 51.1005 18.7578C51.2075 18.8311 51.2279 18.9328 51.2279 19.0666V19.6004L51.023 19.6004Z" fill="#939598"/>
<path d="M51.5624 18.3187H51.8226V19.6004H51.5624V18.3187Z" fill="#939598"/>
</g>
</g>
</svg>
